<svg version="1.1" id="Layer_1" xmlns="http://www.w3.org/2000/svg" xmlns:xlink="http://www.w3.org/1999/xlink" x="0px" y="0px"
	 width="100%" viewBox="0 0 500 500" enable-background="new 0 0 500 500" xml:space="preserve">
<path fill="#010101" opacity="1.000000" stroke="none" 
	d="
M285.000000,501.000000 
	C190.000015,501.000000 95.500046,501.000000 1.000051,501.000000 
	C1.000034,334.333405 1.000034,167.666794 1.000017,1.000140 
	C167.666565,1.000093 334.333130,1.000093 500.999756,1.000047 
	C500.999847,167.666519 500.999847,334.333038 500.999939,500.999786 
	C429.166656,501.000000 357.333344,501.000000 285.000000,501.000000 
M292.422882,251.593964 
	C295.548218,251.593964 298.673553,251.593964 302.020447,251.593964 
	C302.020447,246.782745 302.020447,242.402908 302.020447,237.751923 
	C294.941650,237.751923 288.147400,237.751923 281.185760,237.751923 
	C281.185760,221.412354 281.185760,205.347031 281.185760,188.975769 
	C288.251556,188.975769 295.040222,188.975769 302.066833,188.975769 
	C302.066833,184.227921 302.066833,179.785172 302.066833,175.408844 
	C290.340759,175.408844 278.789062,175.408844 267.326721,175.408844 
	C267.326721,200.888092 267.326721,225.981720 267.326721,251.593918 
	C275.528778,251.593918 283.487213,251.593918 292.422882,251.593964 
M237.499634,210.446198 
	C245.405548,210.446198 253.311447,210.446198 261.208191,210.446198 
	C261.208191,198.263474 261.208191,186.823730 261.208191,175.211304 
	C256.703705,175.211304 252.418747,175.211304 247.633972,175.211304 
	C247.633972,182.192581 247.633972,189.109451 247.633972,196.277344 
	C236.454605,196.277344 225.775116,196.277344 214.575317,196.277344 
	C214.575317,189.054276 214.575317,182.149231 214.575317,175.297638 
	C209.792160,175.297638 205.533340,175.297638 201.290436,175.297638 
	C201.290436,187.092651 201.290436,198.622986 201.290436,210.446136 
	C213.241150,210.446136 224.870392,210.446136 237.499634,210.446198 
M259.837097,251.571609 
	C260.354919,251.043152 261.320526,250.518173 261.324677,249.985748 
	C261.411804,238.732285 261.390594,227.477982 261.390594,216.323883 
	C240.934708,216.323883 221.062668,216.323883 201.303040,216.323883 
	C201.303040,228.204865 201.303040,239.747879 201.303040,251.245697 
	C205.894669,251.245697 210.135544,251.245697 214.885071,251.245697 
	C214.885071,244.036804 214.885071,237.157791 214.885071,230.384384 
	C226.095001,230.384384 236.785660,230.384384 247.798462,230.384384 
	C247.798462,237.522980 247.798462,244.302734 247.798462,251.581573 
	C251.723175,251.581573 255.336823,251.581573 259.837097,251.571609 
M470.283844,320.746155 
	C478.918823,308.869965 475.585846,292.923523 462.713562,289.564758 
	C453.669769,287.204987 443.861115,287.776581 434.284851,287.030640 
	C434.284851,301.261536 434.284851,314.044312 434.284851,327.234283 
	C441.083557,327.234283 447.712769,327.275513 454.341217,327.221954 
	C460.217041,327.174469 465.458954,325.377716 470.283844,320.746155 
M66.039589,314.485962 
	C66.039589,305.688293 66.039589,296.890594 66.039589,287.959229 
	C62.090405,287.959229 58.513046,287.959229 54.458435,287.959229 
	C54.458435,292.806091 54.458435,297.380920 54.458435,301.954773 
	C49.256187,301.954773 44.544914,301.954773 39.549339,301.954773 
	C39.549339,297.128448 39.549339,292.674622 39.549339,287.950928 
	C35.667953,287.950928 32.083103,287.950928 28.300514,287.950928 
	C28.300514,301.048645 28.300514,313.956726 28.300514,327.039795 
	C32.098850,327.039795 35.684471,327.039795 39.646633,327.039795 
	C39.646633,322.003235 39.646633,317.238617 39.646633,312.233643 
	C44.774315,312.233643 49.523621,312.233643 54.795006,312.233643 
	C54.795006,317.333435 54.795006,322.229523 54.795006,327.104126 
	C58.777546,327.104126 62.236561,327.104126 66.039589,327.104126 
	C66.039589,323.088928 66.039589,319.284058 66.039589,314.485962 
M344.030060,325.590881 
	C345.911163,326.245483 347.745422,327.154236 349.681396,327.511108 
	C358.571289,329.150024 366.785461,327.723236 372.759033,320.428650 
	C378.173035,313.817383 378.891052,306.149658 375.196289,298.434326 
	C371.157257,290.000061 362.486908,285.840027 352.269104,286.956665 
	C342.885254,287.982147 335.928833,293.849823 333.721100,302.601685 
	C331.504791,311.387573 334.915039,319.381866 344.030060,325.590881 
M209.911423,327.303833 
	C212.871384,327.303833 215.831345,327.303833 219.313721,327.303833 
	C219.313721,323.580383 219.313721,320.347992 219.313721,317.355865 
	C223.664261,315.943939 225.855820,317.589478 227.924149,320.856140 
	C232.419678,327.956299 235.663162,328.905975 243.850296,326.423462 
	C241.344360,322.695160 238.863602,319.004272 236.270782,315.146698 
	C236.922546,314.605621 237.393600,314.174103 237.904556,313.796600 
	C243.079819,309.973236 244.435715,304.789185 243.182663,298.741333 
	C241.951538,292.799194 237.888550,289.038727 232.269241,288.522003 
	C224.285522,287.787872 216.183899,288.335571 207.929291,288.335571 
	C207.929291,300.516479 207.908447,312.668274 207.975906,324.819580 
	C207.980453,325.635040 208.653061,326.446777 209.911423,327.303833 
M167.893753,327.262421 
	C177.969543,327.262421 188.045349,327.262421 198.061554,327.262421 
	C198.061554,323.980896 198.061554,321.403564 198.061554,318.334106 
	C191.179443,318.334106 184.619003,318.334106 178.111115,318.334106 
	C178.111115,315.754669 178.111115,313.687622 178.111115,311.137756 
	C184.036041,311.137756 189.608673,311.137756 195.106598,311.137756 
	C195.106598,308.181519 195.106598,305.716400 195.106598,302.793457 
	C189.321548,302.793457 183.732834,302.793457 178.144379,302.793457 
	C178.144379,300.444305 178.144379,298.562286 178.144379,296.310791 
	C184.813766,296.310791 191.098404,296.310791 197.549576,296.310791 
	C197.549576,293.337036 197.549576,290.739563 197.549576,287.917511 
	C187.254410,287.917511 177.168396,287.917511 167.040588,287.917511 
	C167.040588,301.037476 167.040588,313.962891 167.893753,327.262421 
M149.221313,304.750092 
	C150.820358,302.836853 152.281418,300.783661 154.048569,299.040894 
	C157.236740,295.896729 158.835205,292.452576 157.133545,287.911865 
	C145.946213,287.911865 134.864487,287.911865 123.657120,287.911865 
	C123.657120,290.880859 123.657120,293.603943 123.657120,297.000977 
	C129.782669,297.000977 135.604523,297.000977 142.293655,297.000977 
	C136.568741,303.813934 131.734177,309.938782 126.479752,315.679352 
	C123.388817,319.056213 122.085953,322.535980 123.329895,327.065063 
	C134.855652,327.065063 146.415146,327.065063 158.007843,327.065063 
	C158.007843,324.052429 158.007843,321.300354 158.007843,318.112488 
	C151.508286,318.112488 145.290802,318.112488 138.060043,318.112488 
	C142.060272,313.341492 145.424759,309.328735 149.221313,304.750092 
M386.010986,309.318542 
	C386.066528,310.646912 386.010925,311.990936 386.195312,313.301147 
	C387.590820,323.217773 394.674377,328.521606 405.864471,328.080688 
	C416.411560,327.665070 422.693909,321.992462 423.092255,311.933350 
	C423.406921,303.988251 423.155548,296.020752 423.155548,288.082062 
	C419.286407,288.082062 415.756989,288.082062 412.054626,288.082062 
	C412.054626,290.638550 412.059326,292.794373 412.053741,294.950195 
	C412.039520,300.439575 412.183167,305.935822 411.950409,311.416046 
	C411.775604,315.532257 409.674774,318.339172 405.244812,318.679993 
	C401.014679,319.005463 398.355804,316.648193 397.679657,311.845886 
	C397.356842,309.553253 397.345673,307.206665 397.326324,304.883423 
	C397.279602,299.275635 397.311157,293.667175 397.311157,288.053833 
	C393.277008,288.053833 389.745392,288.053833 386.010742,288.053833 
	C386.010742,295.070618 386.010742,301.716492 386.010986,309.318542 
M112.874733,314.519379 
	C109.310051,306.477234 105.896095,298.361511 102.039307,290.461975 
	C101.359169,289.068909 98.785454,287.767456 97.161537,287.853058 
	C94.356842,288.000854 90.620644,285.697479 88.792015,289.818481 
	C83.361198,302.057373 78.006912,314.330231 72.303589,327.316406 
	C75.850426,327.316406 78.809242,327.539490 81.703629,327.205048 
	C82.839027,327.073883 84.540901,325.854401 84.766411,324.855499 
	C85.860832,320.007782 89.022911,319.159790 93.270821,319.673859 
	C94.908936,319.872101 96.615158,319.887238 98.248367,319.670044 
	C102.057632,319.163544 104.556152,320.172668 105.510063,324.331085 
	C105.780121,325.508301 107.504242,327.014923 108.723297,327.180695 
	C111.745789,327.591736 114.861702,327.315735 118.507645,327.315735 
	C116.481934,322.763550 114.806625,318.998779 112.874733,314.519379 
M265.752869,299.156281 
	C271.887421,295.022156 275.525513,295.298340 283.061951,300.624237 
	C285.257446,298.575470 287.488953,296.493103 289.697266,294.432373 
	C283.077667,286.752289 272.763763,284.716949 262.946533,288.812347 
	C254.950485,292.148010 250.397385,299.980164 251.006332,309.351715 
	C251.589691,318.329254 257.616425,325.166199 266.967651,327.458740 
	C276.141327,329.707764 285.330383,326.780487 289.498260,320.167114 
	C287.310120,318.199982 285.101288,316.214264 282.935791,314.267517 
	C275.855804,319.631897 270.225891,320.061401 265.735229,315.742035 
	C261.726501,311.886322 261.507446,305.535553 265.752869,299.156281 
M301.727173,287.680328 
	C300.589844,287.781128 299.452545,287.881927 298.324188,287.981964 
	C298.324188,301.107178 298.324188,314.024353 298.324188,327.075012 
	C308.320251,327.075012 318.072540,327.075012 327.933228,327.075012 
	C327.933228,324.081360 327.933228,321.330475 327.933228,318.047485 
	C321.608856,318.047485 315.547211,318.047485 309.049225,318.047485 
	C309.049225,307.612244 309.049225,297.709961 309.049225,287.680939 
	C306.587250,287.680939 304.592316,287.680939 301.727173,287.680328 
z"/>
<path fill="#F6F6F6" opacity="1.000000" stroke="none" 
	d="
M291.934265,251.593933 
	C283.487213,251.593918 275.528778,251.593918 267.326721,251.593918 
	C267.326721,225.981720 267.326721,200.888092 267.326721,175.408844 
	C278.789062,175.408844 290.340759,175.408844 302.066833,175.408844 
	C302.066833,179.785172 302.066833,184.227921 302.066833,188.975769 
	C295.040222,188.975769 288.251556,188.975769 281.185760,188.975769 
	C281.185760,205.347031 281.185760,221.412354 281.185760,237.751923 
	C288.147400,237.751923 294.941650,237.751923 302.020447,237.751923 
	C302.020447,242.402908 302.020447,246.782745 302.020447,251.593964 
	C298.673553,251.593964 295.548218,251.593964 291.934265,251.593933 
z"/>
<path fill="#FCFCFC" opacity="1.000000" stroke="none" 
	d="
M236.999634,210.446167 
	C224.870392,210.446136 213.241150,210.446136 201.290436,210.446136 
	C201.290436,198.622986 201.290436,187.092651 201.290436,175.297638 
	C205.533340,175.297638 209.792160,175.297638 214.575317,175.297638 
	C214.575317,182.149231 214.575317,189.054276 214.575317,196.277344 
	C225.775116,196.277344 236.454605,196.277344 247.633972,196.277344 
	C247.633972,189.109451 247.633972,182.192581 247.633972,175.211304 
	C252.418747,175.211304 256.703705,175.211304 261.208191,175.211304 
	C261.208191,186.823730 261.208191,198.263474 261.208191,210.446198 
	C253.311447,210.446198 245.405548,210.446198 236.999634,210.446167 
z"/>
<path fill="#F9F9F9" opacity="1.000000" stroke="none" 
	d="
M259.393799,251.576599 
	C255.336823,251.581573 251.723175,251.581573 247.798462,251.581573 
	C247.798462,244.302734 247.798462,237.522980 247.798462,230.384384 
	C236.785660,230.384384 226.095001,230.384384 214.885071,230.384384 
	C214.885071,237.157791 214.885071,244.036804 214.885071,251.245697 
	C210.135544,251.245697 205.894669,251.245697 201.303040,251.245697 
	C201.303040,239.747879 201.303040,228.204865 201.303040,216.323883 
	C221.062668,216.323883 240.934708,216.323883 261.390594,216.323883 
	C261.390594,227.477982 261.411804,238.732285 261.324677,249.985748 
	C261.320526,250.518173 260.354919,251.043152 259.393799,251.576599 
z"/>
<path fill="#F4F4F4" opacity="1.000000" stroke="none" 
	d="
M470.040833,321.013916 
	C465.458954,325.377716 460.217041,327.174469 454.341217,327.221954 
	C447.712769,327.275513 441.083557,327.234283 434.284851,327.234283 
	C434.284851,314.044312 434.284851,301.261536 434.284851,287.030640 
	C443.861115,287.776581 453.669769,287.204987 462.713562,289.564758 
	C475.585846,292.923523 478.918823,308.869965 470.040833,321.013916 
M453.122650,318.158325 
	C460.924347,317.107544 464.454315,312.666046 463.318207,305.329865 
	C462.217255,298.220581 456.204163,295.438202 445.964294,297.318542 
	C445.964294,304.174957 445.964294,311.031799 445.964294,318.162994 
	C448.270111,318.162994 450.237640,318.162994 453.122650,318.158325 
z"/>
<path fill="#F6F6F6" opacity="1.000000" stroke="none" 
	d="
M66.039589,314.982574 
	C66.039589,319.284058 66.039589,323.088928 66.039589,327.104126 
	C62.236561,327.104126 58.777546,327.104126 54.795006,327.104126 
	C54.795006,322.229523 54.795006,317.333435 54.795006,312.233643 
	C49.523621,312.233643 44.774315,312.233643 39.646633,312.233643 
	C39.646633,317.238617 39.646633,322.003235 39.646633,327.039795 
	C35.684471,327.039795 32.098850,327.039795 28.300514,327.039795 
	C28.300514,313.956726 28.300514,301.048645 28.300514,287.950928 
	C32.083103,287.950928 35.667953,287.950928 39.549339,287.950928 
	C39.549339,292.674622 39.549339,297.128448 39.549339,301.954773 
	C44.544914,301.954773 49.256187,301.954773 54.458435,301.954773 
	C54.458435,297.380920 54.458435,292.806091 54.458435,287.959229 
	C58.513046,287.959229 62.090405,287.959229 66.039589,287.959229 
	C66.039589,296.890594 66.039589,305.688293 66.039589,314.982574 
z"/>
<path fill="#F6F6F6" opacity="1.000000" stroke="none" 
	d="
M343.701599,325.409485 
	C334.915039,319.381866 331.504791,311.387573 333.721100,302.601685 
	C335.928833,293.849823 342.885254,287.982147 352.269104,286.956665 
	C362.486908,285.840027 371.157257,290.000061 375.196289,298.434326 
	C378.891052,306.149658 378.173035,313.817383 372.759033,320.428650 
	C366.785461,327.723236 358.571289,329.150024 349.681396,327.511108 
	C347.745422,327.154236 345.911163,326.245483 343.701599,325.409485 
M349.570557,317.087341 
	C354.342346,319.602692 358.824554,319.403198 362.756378,315.464966 
	C366.015778,312.200287 366.826874,306.344330 364.608398,302.025635 
	C362.386200,297.699524 358.628540,295.917816 353.904907,296.411835 
	C349.748260,296.846558 346.664520,299.203400 345.447144,303.143463 
	C343.884186,308.201965 344.468842,313.009521 349.570557,317.087341 
z"/>
<path fill="#F9F9F9" opacity="1.000000" stroke="none" 
	d="
M209.463181,327.282043 
	C208.653061,326.446777 207.980453,325.635040 207.975906,324.819580 
	C207.908447,312.668274 207.929291,300.516479 207.929291,288.335571 
	C216.183899,288.335571 224.285522,287.787872 232.269241,288.522003 
	C237.888550,289.038727 241.951538,292.799194 243.182663,298.741333 
	C244.435715,304.789185 243.079819,309.973236 237.904556,313.796600 
	C237.393600,314.174103 236.922546,314.605621 236.270782,315.146698 
	C238.863602,319.004272 241.344360,322.695160 243.850296,326.423462 
	C235.663162,328.905975 232.419678,327.956299 227.924149,320.856140 
	C225.855820,317.589478 223.664261,315.943939 219.313721,317.355865 
	C219.313721,320.347992 219.313721,323.580383 219.313721,327.303833 
	C215.831345,327.303833 212.871384,327.303833 209.463181,327.282043 
M219.080582,301.541046 
	C219.080582,303.631683 219.080582,305.722351 219.080582,308.222290 
	C222.472809,308.036591 225.327652,308.237152 228.005249,307.641296 
	C231.183655,306.933960 232.624847,304.459991 231.973419,301.219147 
	C230.908859,295.923004 226.572983,296.983215 222.872559,296.648346 
	C219.742172,296.365112 218.625626,297.624847 219.080582,301.541046 
z"/>
<path fill="#FBFBFB" opacity="1.000000" stroke="none" 
	d="
M167.467163,327.075378 
	C167.040588,313.962891 167.040588,301.037476 167.040588,287.917511 
	C177.168396,287.917511 187.254410,287.917511 197.549576,287.917511 
	C197.549576,290.739563 197.549576,293.337036 197.549576,296.310791 
	C191.098404,296.310791 184.813766,296.310791 178.144379,296.310791 
	C178.144379,298.562286 178.144379,300.444305 178.144379,302.793457 
	C183.732834,302.793457 189.321548,302.793457 195.106598,302.793457 
	C195.106598,305.716400 195.106598,308.181519 195.106598,311.137756 
	C189.608673,311.137756 184.036041,311.137756 178.111115,311.137756 
	C178.111115,313.687622 178.111115,315.754669 178.111115,318.334106 
	C184.619003,318.334106 191.179443,318.334106 198.061554,318.334106 
	C198.061554,321.403564 198.061554,323.980896 198.061554,327.262421 
	C188.045349,327.262421 177.969543,327.262421 167.467163,327.075378 
z"/>
<path fill="#F5F5F5" opacity="1.000000" stroke="none" 
	d="
M149.005280,305.033020 
	C145.424759,309.328735 142.060272,313.341492 138.060043,318.112488 
	C145.290802,318.112488 151.508286,318.112488 158.007843,318.112488 
	C158.007843,321.300354 158.007843,324.052429 158.007843,327.065063 
	C146.415146,327.065063 134.855652,327.065063 123.329895,327.065063 
	C122.085953,322.535980 123.388817,319.056213 126.479752,315.679352 
	C131.734177,309.938782 136.568741,303.813934 142.293655,297.000977 
	C135.604523,297.000977 129.782669,297.000977 123.657120,297.000977 
	C123.657120,293.603943 123.657120,290.880859 123.657120,287.911865 
	C134.864487,287.911865 145.946213,287.911865 157.133545,287.911865 
	C158.835205,292.452576 157.236740,295.896729 154.048569,299.040894 
	C152.281418,300.783661 150.820358,302.836853 149.005280,305.033020 
z"/>
<path fill="#F8F8F8" opacity="1.000000" stroke="none" 
	d="
M386.010864,308.840454 
	C386.010742,301.716492 386.010742,295.070618 386.010742,288.053833 
	C389.745392,288.053833 393.277008,288.053833 397.311157,288.053833 
	C397.311157,293.667175 397.279602,299.275635 397.326324,304.883423 
	C397.345673,307.206665 397.356842,309.553253 397.679657,311.845886 
	C398.355804,316.648193 401.014679,319.005463 405.244812,318.679993 
	C409.674774,318.339172 411.775604,315.532257 411.950409,311.416046 
	C412.183167,305.935822 412.039520,300.439575 412.053741,294.950195 
	C412.059326,292.794373 412.054626,290.638550 412.054626,288.082062 
	C415.756989,288.082062 419.286407,288.082062 423.155548,288.082062 
	C423.155548,296.020752 423.406921,303.988251 423.092255,311.933350 
	C422.693909,321.992462 416.411560,327.665070 405.864471,328.080688 
	C394.674377,328.521606 387.590820,323.217773 386.195312,313.301147 
	C386.010925,311.990936 386.066528,310.646912 386.010864,308.840454 
z"/>
<path fill="#F6F6F6" opacity="1.000000" stroke="none" 
	d="
M113.003029,314.876709 
	C114.806625,318.998779 116.481934,322.763550 118.507645,327.315735 
	C114.861702,327.315735 111.745789,327.591736 108.723297,327.180695 
	C107.504242,327.014923 105.780121,325.508301 105.510063,324.331085 
	C104.556152,320.172668 102.057632,319.163544 98.248367,319.670044 
	C96.615158,319.887238 94.908936,319.872101 93.270821,319.673859 
	C89.022911,319.159790 85.860832,320.007782 84.766411,324.855499 
	C84.540901,325.854401 82.839027,327.073883 81.703629,327.205048 
	C78.809242,327.539490 75.850426,327.316406 72.303589,327.316406 
	C78.006912,314.330231 83.361198,302.057373 88.792015,289.818481 
	C90.620644,285.697479 94.356842,288.000854 97.161537,287.853058 
	C98.785454,287.767456 101.359169,289.068909 102.039307,290.461975 
	C105.896095,298.361511 109.310051,306.477234 113.003029,314.876709 
M96.260811,311.191101 
	C97.385612,311.109375 98.510422,311.027679 100.144203,310.908966 
	C98.556465,307.107269 97.101379,303.623199 95.193077,299.053894 
	C93.428391,303.598907 92.078453,307.075714 90.480232,311.191986 
	C92.522247,311.191986 93.955032,311.191986 96.260811,311.191101 
z"/>
<path fill="#F4F4F4" opacity="1.000000" stroke="none" 
	d="
M265.468018,299.448151 
	C261.507446,305.535553 261.726501,311.886322 265.735229,315.742035 
	C270.225891,320.061401 275.855804,319.631897 282.935791,314.267517 
	C285.101288,316.214264 287.310120,318.199982 289.498260,320.167114 
	C285.330383,326.780487 276.141327,329.707764 266.967651,327.458740 
	C257.616425,325.166199 251.589691,318.329254 251.006332,309.351715 
	C250.397385,299.980164 254.950485,292.148010 262.946533,288.812347 
	C272.763763,284.716949 283.077667,286.752289 289.697266,294.432373 
	C287.488953,296.493103 285.257446,298.575470 283.061951,300.624237 
	C275.525513,295.298340 271.887421,295.022156 265.468018,299.448151 
z"/>
<path fill="#F8F8F8" opacity="1.000000" stroke="none" 
	d="
M302.162262,287.680634 
	C304.592316,287.680939 306.587250,287.680939 309.049225,287.680939 
	C309.049225,297.709961 309.049225,307.612244 309.049225,318.047485 
	C315.547211,318.047485 321.608856,318.047485 327.933228,318.047485 
	C327.933228,321.330475 327.933228,324.081360 327.933228,327.075012 
	C318.072540,327.075012 308.320251,327.075012 298.324188,327.075012 
	C298.324188,314.024353 298.324188,301.107178 298.324188,287.981964 
	C299.452545,287.881927 300.589844,287.781128 302.162262,287.680634 
z"/>
<path fill="#050505" opacity="1.000000" stroke="none" 
	d="
M452.663879,318.160645 
	C450.237640,318.162994 448.270111,318.162994 445.964294,318.162994 
	C445.964294,311.031799 445.964294,304.174957 445.964294,297.318542 
	C456.204163,295.438202 462.217255,298.220581 463.318207,305.329865 
	C464.454315,312.666046 460.924347,317.107544 452.663879,318.160645 
z"/>
<path fill="#080808" opacity="1.000000" stroke="none" 
	d="
M349.257812,316.870178 
	C344.468842,313.009521 343.884186,308.201965 345.447144,303.143463 
	C346.664520,299.203400 349.748260,296.846558 353.904907,296.411835 
	C358.628540,295.917816 362.386200,297.699524 364.608398,302.025635 
	C366.826874,306.344330 366.015778,312.200287 362.756378,315.464966 
	C358.824554,319.403198 354.342346,319.602692 349.257812,316.870178 
z"/>
<path fill="#0D0D0D" opacity="1.000000" stroke="none" 
	d="
M219.080963,301.067139 
	C218.625626,297.624847 219.742172,296.365112 222.872559,296.648346 
	C226.572983,296.983215 230.908859,295.923004 231.973419,301.219147 
	C232.624847,304.459991 231.183655,306.933960 228.005249,307.641296 
	C225.327652,308.237152 222.472809,308.036591 219.080582,308.222290 
	C219.080582,305.722351 219.080582,303.631683 219.080963,301.067139 
z"/>
<path fill="#0D0D0D" opacity="1.000000" stroke="none" 
	d="
M95.824310,311.191528 
	C93.955032,311.191986 92.522247,311.191986 90.480232,311.191986 
	C92.078453,307.075714 93.428391,303.598907 95.193077,299.053894 
	C97.101379,303.623199 98.556465,307.107269 100.144203,310.908966 
	C98.510422,311.027679 97.385612,311.109375 95.824310,311.191528 
z"/>
</svg>